<mxfile host="" modified="2020-06-17T11:51:44.744Z" agent="5.0 (Macintosh; Intel Mac OS X 10_15_5) AppleWebKit/537.36 (KHTML, like Gecko) Code/1.45.1 Chrome/78.0.3904.130 Electron/7.2.4 Safari/537.36" etag="RKNNQcgOOEDTk97pjFsM" version="13.1.3">
    <diagram id="6hGFLwfOUW9BJ-s0fimq" name="Page-1">
        <mxGraphModel dx="1378" dy="860" grid="1" gridSize="10" guides="1" tooltips="1" connect="1" arrows="1" fold="1" page="1" pageScale="1" pageWidth="827" pageHeight="1169" math="0" shadow="0">
            <root>
                <mxCell id="0"/>
                <mxCell id="1" parent="0"/>
                <mxCell id="12" style="edgeStyle=orthogonalEdgeStyle;rounded=0;orthogonalLoop=1;jettySize=auto;html=1;entryX=0;entryY=0.5;entryDx=0;entryDy=0;endArrow=block;endFill=0;" edge="1" parent="1" source="2" target="6">
                    <mxGeometry relative="1" as="geometry"/>
                </mxCell>
                <mxCell id="13" style="edgeStyle=orthogonalEdgeStyle;rounded=0;orthogonalLoop=1;jettySize=auto;html=1;entryX=0;entryY=0.5;entryDx=0;entryDy=0;endArrow=block;endFill=0;" edge="1" parent="1" source="2" target="7">
                    <mxGeometry relative="1" as="geometry"/>
                </mxCell>
                <mxCell id="27" style="edgeStyle=orthogonalEdgeStyle;rounded=0;orthogonalLoop=1;jettySize=auto;html=1;entryX=0.5;entryY=0;entryDx=0;entryDy=0;entryPerimeter=0;endArrow=block;endFill=0;" edge="1" parent="1" source="2" target="3">
                    <mxGeometry relative="1" as="geometry"/>
                </mxCell>
                <mxCell id="30" style="edgeStyle=orthogonalEdgeStyle;rounded=0;orthogonalLoop=1;jettySize=auto;html=1;entryX=0;entryY=0.5;entryDx=0;entryDy=0;endArrow=block;endFill=0;" edge="1" parent="1" source="2" target="29">
                    <mxGeometry relative="1" as="geometry"/>
                </mxCell>
                <mxCell id="2" value="咨询师" style="shape=umlActor;verticalLabelPosition=bottom;labelBackgroundColor=#333333;verticalAlign=top;html=1;outlineConnect=0;" vertex="1" parent="1">
                    <mxGeometry x="50" y="150" width="30" height="60" as="geometry"/>
                </mxCell>
                <mxCell id="16" style="edgeStyle=orthogonalEdgeStyle;rounded=0;orthogonalLoop=1;jettySize=auto;html=1;exitX=0.5;exitY=0.5;exitDx=0;exitDy=0;exitPerimeter=0;entryX=0;entryY=0.5;entryDx=0;entryDy=0;endArrow=block;endFill=0;" edge="1" parent="1" source="3" target="10">
                    <mxGeometry relative="1" as="geometry"/>
                </mxCell>
                <mxCell id="17" style="edgeStyle=orthogonalEdgeStyle;rounded=0;orthogonalLoop=1;jettySize=auto;html=1;entryX=0;entryY=0.5;entryDx=0;entryDy=0;endArrow=block;endFill=0;" edge="1" parent="1" source="3" target="9">
                    <mxGeometry relative="1" as="geometry"/>
                </mxCell>
                <mxCell id="23" style="edgeStyle=orthogonalEdgeStyle;rounded=0;orthogonalLoop=1;jettySize=auto;html=1;entryX=0;entryY=0.5;entryDx=0;entryDy=0;endArrow=block;endFill=0;" edge="1" parent="1" source="3" target="8">
                    <mxGeometry relative="1" as="geometry"/>
                </mxCell>
                <mxCell id="28" style="edgeStyle=orthogonalEdgeStyle;rounded=0;orthogonalLoop=1;jettySize=auto;html=1;entryX=0;entryY=0.5;entryDx=0;entryDy=0;endArrow=block;endFill=0;" edge="1" parent="1" source="3" target="11">
                    <mxGeometry relative="1" as="geometry"/>
                </mxCell>
                <mxCell id="3" value="普通用户" style="shape=umlActor;verticalLabelPosition=bottom;labelBackgroundColor=#333333;verticalAlign=top;html=1;outlineConnect=0;" vertex="1" parent="1">
                    <mxGeometry x="50" y="400" width="30" height="60" as="geometry"/>
                </mxCell>
                <mxCell id="6" value="创建咨询时间表" style="ellipse;whiteSpace=wrap;html=1;labelBackgroundColor=#333333;" vertex="1" parent="1">
                    <mxGeometry x="190" y="40" width="110" height="60" as="geometry"/>
                </mxCell>
                <mxCell id="7" value="设置免费咨询" style="ellipse;whiteSpace=wrap;html=1;labelBackgroundColor=#333333;" vertex="1" parent="1">
                    <mxGeometry x="190" y="110" width="110" height="60" as="geometry"/>
                </mxCell>
                <mxCell id="8" value="查看咨询时间表" style="ellipse;whiteSpace=wrap;html=1;labelBackgroundColor=#333333;" vertex="1" parent="1">
                    <mxGeometry x="190" y="380" width="110" height="60" as="geometry"/>
                </mxCell>
                <mxCell id="9" value="评价咨询" style="ellipse;whiteSpace=wrap;html=1;labelBackgroundColor=#333333;" vertex="1" parent="1">
                    <mxGeometry x="190" y="480" width="110" height="60" as="geometry"/>
                </mxCell>
                <mxCell id="10" value="预约咨询" style="ellipse;whiteSpace=wrap;html=1;labelBackgroundColor=#333333;" vertex="1" parent="1">
                    <mxGeometry x="190" y="580" width="110" height="60" as="geometry"/>
                </mxCell>
                <mxCell id="11" value="取消预约" style="ellipse;whiteSpace=wrap;html=1;labelBackgroundColor=#333333;" vertex="1" parent="1">
                    <mxGeometry x="190" y="290" width="110" height="60" as="geometry"/>
                </mxCell>
                <mxCell id="29" value="设置咨询提醒" style="ellipse;whiteSpace=wrap;html=1;labelBackgroundColor=#333333;" vertex="1" parent="1">
                    <mxGeometry x="190" y="190" width="110" height="60" as="geometry"/>
                </mxCell>
            </root>
        </mxGraphModel>
    </diagram>
</mxfile>